# xmcd CD database file
#
# Track frame offsets:
#	150
#	46431
#	53777
#	72490
#	98455
#	130510
#	145218
#	170075
#	186735
#
# Disc length: 2751 seconds
#
# Revision: 9
# Processed by: cddbd v1.5.2PL0 Copyright (c) Steve Scherf et al.
# Submitted via: CDex 2.15
#
DISCID=840abd09
DTITLE=Eagles - Long Road Out Of Eden-Disc 2-2018 Legacy Box Set
DYEAR=2007
DGENRE=Rock
TTITLE0=Long Road Out Of Eden
TTITLE1=I Dreamed There Was No War
TTITLE2=Somebody
TTITLE3=Frail Grasp On The Big Picture
TTITLE4=Last Good Time In Town
TTITLE5=I Love To Watch A Woman Dance
TTITLE6=Business As Usual
TTITLE7=Center Of The Universe
TTITLE8=It's Your World Now
EXTD=YEAR: 2007
EXTT0=
EXTT1=
EXTT2=
EXTT3=
EXTT4=
EXTT5=
EXTT6=
EXTT7=
EXTT8=
PLAYORDER=
